<?xml version="1.0" encoding="utf-8"?>
<!-- Generator: Adobe Illustrator 22.1.0, SVG Export Plug-In . SVG Version: 6.00 Build 0)  -->
<svg version="1.1" id="Слой_1" xmlns="http://www.w3.org/2000/svg" xmlns:xlink="http://www.w3.org/1999/xlink" x="0px" y="0px"
	 viewBox="0 0 1120 347" style="enable-background:new 0 0 1120 347;" xml:space="preserve">
<style type="text/css">
	.st0{fill:#FF9E00;}
	.st1{fill:#0A0A0A;}
	.st2{fill:#1F19FF;}
</style>
<g id="_x23_ffffffff">
</g>
<g id="_x23_ff9e00ff">
	<path class="st0" d="M126.6,7.3c34.6-10.2,72.3-8.5,106.2,3.9c31.3,11.6,59.2,32.3,79.1,59.1C334.8,100.7,347,139,346.3,177
		c0,3.7,0.2,7.5-0.7,11.2c-2.4,29.8-13,58.7-29.9,83.3c-27.8,40.6-73.7,68.5-122.7,73.7c-4.7,0.1-9.3,1.8-14,1.2c-5-0.6-10,0.4-15,0
		c-6.5-0.6-13-2.4-19.5-2.2c0-0.1,0-0.4,0-0.6c19.8,0.4,39.8-1.6,58.7-8c18.3-6,35.3-16,49.5-29c16.3-15.2,28.8-34.4,35.9-55.5
		c2.4-6.8,4.1-13.8,5.6-20.8c2.5-16.3,3.8-32.9,1.2-49.2c-2.9-19.7-11.1-38.5-23.1-54.4C257,106.3,233.7,91.1,208,88.4
		c-8.4,0-16.9-0.8-25,1.4c-19.4,4.2-36.9,15.4-50.4,29.7c-7.3,6.8-12.5,15.4-19.5,22.4c-11,11.3-25.2,20.3-41.1,22.6
		c-7,0.1-14.4,1-21.1-1.5c-12.7-3.6-23.6-13.3-28.8-25.5c-4.4-10.1-5.6-21.6-3-32.3c3.7-19.7,16-36.4,29.4-50.7
		C69.7,32.2,96.9,15.6,126.6,7.3z"/>
</g>
<path class="st1" d="M445.5,29.6c14.6-0.1,29.2,0,43.8-0.1c11.2,0.1,23,3.3,31,11.6c7.8,7.7,10.4,19.4,9,30.1
	c-1.1,10.2-7.2,19.7-16.2,24.7c-11.1,6.6-24.3,6-36.8,6c-2.3,0-4.2,1.9-4.2,4.2c0,5.6,0,11.3,0,16.9c0,2.3-1.8,4.2-4.1,4.2
	c-6.1,0-12.2,0-18.3,0c-2.3,0-4.1-1.9-4.1-4.2C445.6,91.7,445.6,60.6,445.5,29.6 M472.1,55.8c0,6.6,0,13.2,0,19.9
	c0,2.3,1.9,4.1,4.2,4.1c4,0,8.1,0.1,12.1-0.1c4.5-0.2,9.4-1.7,12.1-5.7c4.6-6.9,2.6-18.3-5.8-21.3c-5.9-1.9-12.2-1.3-18.4-1.2
	C473.9,51.6,472.1,53.5,472.1,55.8z"/>
<path class="st1" d="M598.6,127c0.1-31.1-0.1-62.2,0.1-93.3c0-2.3,1.9-4.2,4.2-4.1c13.5,0.1,27,0,40.4,0c11.1,0.3,22.8,3.6,30.5,12
	c7.9,8.3,10.1,20.6,8.2,31.6c-1.4,8.7-6.6,16.4-13.8,21.2c-1.9,1.3-2.5,3.9-1.2,5.8c4.5,6.8,8.9,13.6,13.4,20.4
	c1.8,2.8-0.2,6.5-3.5,6.4c-6.2,0-12.3,0-18.5,0c-1.4,0-2.7-0.7-3.5-1.8c-4.9-7.3-9.6-14.7-14.4-22.1c-0.8-1.2-2.1-1.9-3.5-1.9
	c-2.5,0-5,0-7.6,0c-2.3,0-4.2,1.9-4.2,4.2c0,5.8,0,11.6,0,17.4c0,2.3-1.8,4.2-4.1,4.2C613.5,127,606,127,598.6,127 M625.1,55.8
	c0,6.6,0,13.2,0,19.8c0,2.3,1.8,4.1,4.1,4.2c6.5,0.1,13.1,0.8,19.3-1.6c10.3-4.3,9.7-21.8-0.9-25.4c-5.9-1.9-12.2-1.2-18.3-1.1
	C626.9,51.6,625.1,53.5,625.1,55.8z"/>
<path class="st1" d="M756.7,29.5c6.1-0.1,12.2-0.1,18.3,0c2.3,0,4.1,1.9,4.1,4.2c-0.1,29.7,0,59.4,0,89.1c0,2.3-1.9,4.2-4.1,4.2
	c-6.1,0-12.2,0-18.2,0c-2.3,0-4.2-1.9-4.2-4.2c0-29.7,0.1-59.4,0-89.1C752.5,31.4,754.4,29.5,756.7,29.5z"/>
<path class="st1" d="M853.6,122.8c0.1-29.7-0.1-59.5,0.1-89.2c0-2.3,1.9-4.2,4.3-4.1c5,0.1,10.1,0,15.1,0c1.5,0,2.9,0.8,3.6,2.1
	c9.2,15.9,18.4,31.7,27.6,47.5c0,0,0,0,0,0.1c1.6,2.8,5.7,2.8,7.3,0c8.9-15.8,18-31.6,26.8-47.5c0.7-1.3,2.1-2.1,3.5-2.2
	c5.1-0.1,10.3,0,15.4,0c2.3,0,4.2,1.9,4.2,4.2c-0.1,13.1,0.4,26.2,0.3,39.3c0,16.6-0.1,33.2,0,49.8c0,2.3-1.8,4.2-4.1,4.2
	c-5.4,0.1-10.8,0-16.1,0c-2.3,0-4.1-1.8-4.2-4c-0.3-10.5-0.2-21-0.1-31.5c0-4.3-5.7-5.8-7.8-2.1c-5,8.7-9.8,17.4-14.8,26
	c-0.7,1.3-2.1,2.1-3.6,2.1c-2.4,0-4.8,0-7.2,0c-1.5,0-2.8-0.8-3.6-2.1c-4.9-8.3-9.6-16.6-14.5-24.9c-2.2-3.6-7.8-2.1-7.8,2.1
	c0,10,0,20.1,0,30.1c0,2.3-1.9,4.2-4.2,4.2c-5.4,0-10.8,0-16.2,0C855.4,127,853.6,125.1,853.6,122.8z"/>
<path class="st1" d="M1039.7,29.6c21.6-0.1,43.1,0,64.7,0c2.3,0,4.2,1.9,4.2,4.2v13.2c0,2.3-1.9,4.2-4.2,4.2
	c-12.8,0-25.6-0.1-38.4,0c-2.3,0-4.1,1.9-4.1,4.2c0,2.6,0,5.3,0,7.9c0,2.3,1.9,4.1,4.2,4.1c11-0.1,21.9,0,32.9,0
	c2.3,0,4.2,1.9,4.2,4.2c0,4.1,0,8.2,0,12.4c0,2.3-1.8,4.2-4.1,4.2c-11,0-22,0-32.9,0c-2.3,0-4.2,1.9-4.2,4.2v9.2
	c0,2.3,1.9,4.2,4.2,4.2c13.4,0,26.7,0.1,40.1,0c2.3,0,4.2,1.8,4.2,4.1c0,4.4,0,8.8,0,13.2c0,2.3-1.9,4.2-4.2,4.2
	c-22.1,0-44.3,0-66.4,0c-2.3,0-4.2-1.9-4.2-4.2c0-29.7,0.1-59.4,0-89.1C1035.5,31.4,1037.4,29.6,1039.7,29.6z"/>
<path class="st1" d="M598.2,198c7,0.1,13.9,0,20.9,0.1c7.2,12.7,14.6,25.4,21.9,38.1c1-0.2,1.3-1.4,1.8-2.1
	c6.8-12,13.8-23.9,20.5-35.9c6.5-0.2,12.9,0,19.4-0.1c-10.7,19.1-22,37.8-32.5,57c-0.2,10.2-0.1,20.4,0,30.6
	c-6.5,0.1-13.1,0-19.6,0.1c0-9.9,0-19.8,0-29.7c0.1-2.2-1.5-3.9-2.5-5.7C618.1,232.7,608,215.4,598.2,198z"/>
<path class="st1" d="M689,197.9c5.3,0.1,10.6,0.1,15.9,0c10.5,18,20.9,36.1,31.2,54.2c10.4-18,20.5-36.1,30.8-54.2
	c5.3,0,10.7,0.1,16-0.1c0.4,19.3-0.2,38.7,0.3,58c0,9.9,0,19.8,0,29.7c-6.1,0-12.3,0-18.4,0c-0.1-17.2,0.2-34.5-0.2-51.7
	c-8.2,14.1-16.2,28.2-24.1,42.4c-3,0.1-6.1,0.1-9.1,0.1c-8.1-13.8-16-27.8-24.3-41.6c0,16.9,0,33.9,0,50.8c-6.1,0-12.1,0-18.2,0
	C689,256.4,688.8,227.1,689,197.9z"/>
<path class="st1" d="M803,198c21.1-0.1,42.3,0,63.4,0c-0.1,5.5,0.1,11-0.1,16.4c-14.6-0.2-29.3,0-43.9-0.1
	c-0.1,6.2,0.1,12.5-0.1,18.7c12.9,0.2,25.9,0.2,38.8,0c0.4,5.3,0,10.6,0.2,16c-13,0.2-25.9,0-38.9,0.1c0,6.6,0.1,13.3-0.1,19.9
	c15.2,0.2,30.4,0,45.7,0.1c0,5.5,0,10.9,0,16.4c-21.6,0-43.3,0-64.9,0C803,256.4,803.1,227.2,803,198z"/>
<path class="st1" d="M883.1,197.9c5.3,0.1,10.6,0.1,15.9,0c14,17.5,27.5,35.3,41.5,52.8c0.1-17.6,0-35.1,0-52.7c6.4,0,12.9,0,19.3,0
	c0.1,29.2,0,58.4,0.1,87.5c-5.5,0.1-10.9,0.1-16.4,0c-13.7-17.4-27.2-35.1-41.2-52.2c0,17.4,0,34.9,0,52.3c-6.4,0-12.9,0-19.3,0
	C883.1,256.4,882.9,227.1,883.1,197.9z"/>
<path class="st1" d="M970.6,198c24.4,0,48.8-0.1,73.2,0.1v0.1c-0.5,5.5-0.1,11-0.2,16.4c-8.9,0-17.8,0-26.7,0c0,23.7,0,47.3,0,71
	c-6.5,0-13,0-19.5,0c0-23.6,0-47.3,0-71c-8.9,0-17.8,0-26.7,0C970.6,209.1,970.6,203.5,970.6,198z"/>
<path class="st1" d="M441,198c12.6,0,25.2,0,37.7,0c9.7,0.2,20.1,3,26.9,10.4c5.8,5.8,8.2,14.3,7.9,22.4c0,8.6-3.6,17.3-10.3,22.8
	c-6.8,5.6-15.8,7.8-24.5,8c-6.1,0-12.1,0-18.2,0c-0.1,8-0.1,16,0,24c-6.5,0.1-13,0-19.6,0C441,256.4,441,227.2,441,198 M460.5,214.6
	c0,10.1,0,20.2,0,30.3c5.5-0.1,10.9,0.1,16.4-0.1c4.6-0.2,9.6-1.2,13-4.6c4.4-4.6,4.8-12,2.3-17.7c-2.1-4.5-6.9-7-11.6-7.6
	C474,214.3,467.3,214.7,460.5,214.6z"/>
<path class="st1" d="M512.6,285.6c12.3-29.2,24.9-58.3,37.2-87.5c6.5-0.1,13-0.1,19.5,0c12.3,29.2,24.9,58.3,37.3,87.5
	c-6.9,0-13.8,0.1-20.7-0.1c-2.3-6.2-4.9-12.4-7.3-18.6c-12.9,0-25.7,0-38.5,0c-2.5,6.2-4.9,12.4-7.4,18.6
	C526,285.6,519.3,285.6,512.6,285.6 M546.3,251.4c8.7,0,17.4,0,26.2,0c-4.3-11-8.7-22-13.1-33.1C555,229.4,550.7,240.4,546.3,251.4z
	"/>
<g id="_x23_1f19ffff">
	<path class="st2" d="M177.8,139.1c11.6-6.9,25.7-11.8,39.3-8.6c12.2,2.6,22.4,11.1,28.9,21.5c9.7,15.4,13.2,34,12.4,52
		c-1.5,31.6-16.6,62.1-40.2,83.2c-20.4,18.1-47.5,26.7-74.3,29c-10,0.1-20.1,0.7-30-1c-28.1-3.4-55.6-15.4-75.4-35.9
		c-15.4-16.7-24.9-38-31.3-59.7c-4.8-17.1-6.7-35-6.5-52.8c1-6.8,0.7-13.6,2.2-20.3c0.3-1.7,1.3-3.6,0.3-5.2
		c0.4-0.6,0.9-1.1,1.3-1.7c0-0.7,0-2,0.1-2.7c0.1,1.6,0.2,3.2-0.1,4.9c-1.1,7.4,0.2,14.9,1.7,22.1c2.9,12.6,10.9,24,21.8,31
		c9.7,6.4,21.5,8.8,33,8.5c15.2,0.6,30.5-2.7,44.4-9c13.6-6.2,25.7-15.2,36.8-25.1C153.7,158.9,164.2,147,177.8,139.1z"/>
</g>
<g>
	<path d="M1082.6,285.9c-5.7,0-10.6-0.6-14.6-1.8c-4.1-1.2-7.4-2.9-10-5.1c-2.6-2.2-4.6-4.9-5.9-8.1c-1.3-3.2-2-6.7-2.1-10.6h17.6
		c0.2,3.3,1.3,5.9,3.5,7.8c2.2,1.9,6,2.8,11.5,2.8c5.5,0,9.4-0.9,11.6-2.6c2.2-1.7,3.4-4,3.4-6.8c0-1.6-0.3-3.1-0.9-4.3
		c-0.6-1.3-1.6-2.4-3-3.4c-1.5-1-3.4-1.9-5.9-2.8c-2.4-0.9-5.5-1.8-9.3-2.7c-4.6-1.1-8.5-2.5-11.8-4c-3.3-1.5-6-3.3-8.2-5.3
		c-2.2-2-3.8-4.4-4.9-7.1c-1.1-2.7-1.6-5.9-1.6-9.6c0-3.6,0.6-6.8,1.8-9.8c1.2-2.9,3.1-5.4,5.6-7.6c2.5-2.1,5.7-3.8,9.5-4.9
		c3.8-1.2,8.3-1.8,13.5-1.8c10.4,0,18.1,2.3,23,6.8c4.9,4.6,7.5,10.7,7.6,18.4h-17.4c-0.2-3.2-1.2-5.7-3.2-7.5
		c-2-1.8-5.3-2.7-9.9-2.7c-4.6,0-8,0.9-10,2.6c-2,1.7-3,3.9-3,6.5c0,1.5,0.3,2.9,0.9,4c0.6,1.1,1.6,2.2,3,3c1.4,0.9,3.2,1.7,5.5,2.5
		c2.3,0.8,5.1,1.6,8.5,2.4c4.9,1.2,9,2.6,12.5,4.2c3.5,1.6,6.3,3.4,8.5,5.5c2.2,2.1,3.9,4.6,4.9,7.4c1.1,2.8,1.6,6.2,1.6,10
		c0,3.7-0.6,7-1.9,9.9c-1.3,3-3.2,5.5-5.9,7.7c-2.6,2.2-6,3.8-10.1,5C1093,285.4,1088.2,285.9,1082.6,285.9z"/>
</g>
</svg>
